<svg class="svgsprite" xmlns="http://www.w3.org/2000/svg" xmlns:xlink="http://www.w3.org/1999/xlink"><symbol viewBox="0 0 96.124 96.123" id="ico-facebook" xmlns="http://www.w3.org/2000/svg"><path d="M72.089.02L59.624 0C45.62 0 36.57 9.285 36.57 23.656v10.907H24.037a1.96 1.96 0 0 0-1.96 1.961v15.803a1.96 1.96 0 0 0 1.96 1.96H36.57v39.876a1.96 1.96 0 0 0 1.96 1.96h16.352a1.96 1.96 0 0 0 1.96-1.96V54.287h14.654a1.96 1.96 0 0 0 1.96-1.96l.006-15.803a1.963 1.963 0 0 0-1.961-1.961H56.842v-9.246c0-4.444 1.059-6.7 6.848-6.7l8.397-.003a1.96 1.96 0 0 0 1.959-1.96V1.98A1.96 1.96 0 0 0 72.089.02z"/></symbol><symbol viewBox="0 0 458.246 458.246" id="ico-gplus" xmlns="http://www.w3.org/2000/svg"><path d="M160.777 259.368h71.594c-12.567 35.53-46.603 61.004-86.45 60.71-48.349-.357-88.327-39.035-90.204-87.349-2.012-51.789 39.537-94.563 90.887-94.563 23.479 0 44.905 8.946 61.058 23.605 3.826 3.473 9.65 3.495 13.413-.047l26.296-24.749c4.112-3.871 4.127-10.408.027-14.292-25.617-24.269-59.981-39.396-97.876-40.136C68.696 80.969.567 147.238.004 228.078c-.568 81.447 65.285 147.649 146.6 147.649 78.199 0 142.081-61.229 146.36-138.358.114-.967.189-33.648.189-33.648H160.777c-5.426 0-9.824 4.398-9.824 9.824v35.999c0 5.426 4.399 9.824 9.824 9.824zM414.464 206.99v-35.173a8.609 8.609 0 0 0-8.609-8.609h-29.604a8.609 8.609 0 0 0-8.609 8.609v35.173h-35.173a8.609 8.609 0 0 0-8.609 8.609v29.604a8.609 8.609 0 0 0 8.609 8.609h35.173v35.173a8.609 8.609 0 0 0 8.609 8.609h29.604a8.609 8.609 0 0 0 8.609-8.609v-35.173h35.173a8.609 8.609 0 0 0 8.609-8.609v-29.604a8.609 8.609 0 0 0-8.609-8.609h-35.173z"/></symbol><symbol viewBox="0 0 169.063 169.063" id="ico-instagram" xmlns="http://www.w3.org/2000/svg"><path d="M122.406 0H46.654C20.929 0 0 20.93 0 46.655v75.752c0 25.726 20.929 46.655 46.654 46.655h75.752c25.727 0 46.656-20.93 46.656-46.655V46.655C169.063 20.93 148.133 0 122.406 0zm31.657 122.407c0 17.455-14.201 31.655-31.656 31.655H46.654C29.2 154.063 15 139.862 15 122.407V46.655C15 29.201 29.2 15 46.654 15h75.752c17.455 0 31.656 14.201 31.656 31.655v75.752z"/><path d="M84.531 40.97c-24.021 0-43.563 19.542-43.563 43.563 0 24.02 19.542 43.561 43.563 43.561s43.563-19.541 43.563-43.561c0-24.021-19.542-43.563-43.563-43.563zm0 72.123c-15.749 0-28.563-12.812-28.563-28.561 0-15.75 12.813-28.563 28.563-28.563s28.563 12.813 28.563 28.563c0 15.749-12.814 28.561-28.563 28.561zM129.921 28.251c-2.89 0-5.729 1.17-7.77 3.22a11.053 11.053 0 0 0-3.23 7.78c0 2.891 1.18 5.73 3.23 7.78 2.04 2.04 4.88 3.22 7.77 3.22 2.9 0 5.73-1.18 7.78-3.22 2.05-2.05 3.22-4.89 3.22-7.78 0-2.9-1.17-5.74-3.22-7.78-2.04-2.05-4.88-3.22-7.78-3.22z"/></symbol><symbol viewBox="0 0 485.632 485.632" id="ico-map-pin" xmlns="http://www.w3.org/2000/svg"><path d="M242.816 0c-94.117 0-170.42 76.303-170.42 170.419 0 7.205.578 14.227 1.459 21.188C88.417 324.727 231.75 478.153 231.75 478.153c2.554 2.858 5.016 4.621 7.387 5.897l.122.061 4.773 1.52 4.773-1.52.122-.061c2.371-1.277 4.834-3.131 7.387-5.897 0 0 141.266-153.7 155.493-286.849.851-6.87 1.429-13.832 1.429-20.915C413.205 76.303 336.933 0 242.816 0zm0 280.04c-60.434 0-109.62-49.186-109.62-109.62S182.382 60.8 242.816 60.8s109.59 49.186 109.59 109.62-49.156 109.62-109.59 109.62z"/></symbol><symbol viewBox="0 0 512 512" id="ico-vk" xmlns="http://www.w3.org/2000/svg"><path d="M440.649 295.361c16.984 16.582 34.909 32.182 50.142 50.436 6.729 8.112 13.099 16.482 17.973 25.896 6.906 13.382.651 28.108-11.348 28.907l-74.59-.034c-19.238 1.596-34.585-6.148-47.489-19.302-10.327-10.519-19.891-21.714-29.821-32.588-4.071-4.444-8.332-8.626-13.422-11.932-10.182-6.609-19.021-4.586-24.84 6.034-5.926 10.802-7.271 22.762-7.853 34.8-.799 17.564-6.108 22.182-23.751 22.986-37.705 1.778-73.489-3.926-106.732-22.947-29.308-16.768-52.034-40.441-71.816-67.24-38.513-52.183-68.008-109.525-94.516-168.473-5.967-13.281-1.603-20.41 13.051-20.663 24.333-.473 48.663-.439 73.025-.034 9.89.145 16.437 5.817 20.256 15.16 13.165 32.371 29.274 63.169 49.494 91.716 5.385 7.6 10.876 15.201 18.694 20.55 8.65 5.923 15.236 3.96 19.305-5.676 2.582-6.11 3.713-12.691 4.295-19.234 1.928-22.513 2.182-44.988-1.199-67.422-2.076-14.001-9.962-23.065-23.933-25.714-7.129-1.351-6.068-4.004-2.616-8.073 5.995-7.018 11.634-11.387 22.875-11.387h84.298c13.271 2.619 16.218 8.581 18.035 21.934l.072 93.637c-.145 5.169 2.582 20.51 11.893 23.931 7.452 2.436 12.364-3.526 16.836-8.251 20.183-21.421 34.588-46.737 47.457-72.951 5.711-11.527 10.622-23.497 15.381-35.458 3.526-8.875 9.059-13.242 19.056-13.049l81.132.072c2.406 0 4.84.035 7.17.434 13.671 2.33 17.418 8.211 13.195 21.561-6.653 20.945-19.598 38.4-32.255 55.935-13.53 18.721-28.001 36.802-41.418 55.634-12.328 17.2-11.349 25.868 3.964 40.805z"/></symbol><symbol viewBox="0 0 310 310" id="ico-youtube" xmlns="http://www.w3.org/2000/svg"><path d="M297.917 64.645c-11.19-13.302-31.85-18.728-71.306-18.728H83.386c-40.359 0-61.369 5.776-72.517 19.938C0 79.663 0 100.008 0 128.166v53.669c0 54.551 12.896 82.248 83.386 82.248h143.226c34.216 0 53.176-4.788 65.442-16.527C304.633 235.518 310 215.863 310 181.835v-53.669c0-29.695-.841-50.16-12.083-63.521zm-98.896 97.765l-65.038 33.991a9.997 9.997 0 0 1-14.632-8.863v-67.764a10 10 0 0 1 14.609-8.874l65.038 33.772a10 10 0 0 1 .023 17.738z"/></symbol></svg>